<svg width="289" height="17" viewBox="0 0 289 17" fill="none" xmlns="http://www.w3.org/2000/svg">
<path fill-rule="evenodd" clip-rule="evenodd" d="M1 6.25L8.61984 1L16.2397 6.25V14.5C16.2397 15.3284 15.4816 16 14.5464 16H2.6933C1.75811 16 1 15.3284 1 14.5V6.25Z" stroke="#7E72F2" stroke-linecap="round" stroke-linejoin="round"/>
<path d="M5.68909 16V8H11.5505V16" stroke="#7E72F2" stroke-linecap="round" stroke-linejoin="round"/>
<path d="M40.8576 13L45.5467 9L40.8576 5" stroke="black" stroke-linecap="round" stroke-linejoin="round"/>
<path d="M32.6516 13L37.3407 9L32.6516 5" stroke="black" stroke-linecap="round" stroke-linejoin="round"/>
<path d="M179.187 13L183.876 9L179.187 5" stroke="black" stroke-linecap="round" stroke-linejoin="round"/>
<path d="M170.981 13L175.67 9L170.981 5" stroke="black" stroke-linecap="round" stroke-linejoin="round"/>
<path d="M66.2398 10.626H60.0798C60.1358 11.3913 60.4298 12.012 60.9618 12.488C61.4938 12.9547 62.1658 13.188 62.9778 13.188C63.4352 13.188 63.8552 13.1087 64.2378 12.95C64.6205 12.782 64.9518 12.5393 65.2318 12.222L65.7918 12.866C65.4652 13.258 65.0545 13.5567 64.5598 13.762C64.0745 13.9673 63.5378 14.07 62.9498 14.07C62.1938 14.07 61.5218 13.9113 60.9338 13.594C60.3552 13.2673 59.9025 12.8193 59.5758 12.25C59.2492 11.6807 59.0858 11.0367 59.0858 10.318C59.0858 9.59933 59.2398 8.95533 59.5478 8.386C59.8652 7.81667 60.2945 7.37333 60.8358 7.056C61.3865 6.73867 62.0025 6.58 62.6838 6.58C63.3652 6.58 63.9765 6.73867 64.5178 7.056C65.0592 7.37333 65.4838 7.81667 65.7918 8.386C66.0998 8.946 66.2538 9.59 66.2538 10.318L66.2398 10.626ZM62.6838 7.434C61.9745 7.434 61.3772 7.66267 60.8918 8.12C60.4158 8.568 60.1452 9.156 60.0798 9.884H65.3018C65.2365 9.156 64.9612 8.568 64.4758 8.12C63.9998 7.66267 63.4025 7.434 62.6838 7.434ZM72.7431 14.084C71.7724 14.084 70.8951 13.8693 70.1111 13.44C69.3364 13.0107 68.7251 12.418 68.2771 11.662C67.8384 10.8967 67.6191 10.0427 67.6191 9.1C67.6191 8.15733 67.8384 7.308 68.2771 6.552C68.7251 5.78667 69.3411 5.18933 70.1251 4.76C70.9091 4.33067 71.7864 4.116 72.7571 4.116C73.4851 4.116 74.1571 4.23733 74.7731 4.48C75.3891 4.72267 75.9117 5.07733 76.3411 5.544L75.6831 6.202C74.9177 5.42733 73.9517 5.04 72.7851 5.04C72.0104 5.04 71.3057 5.21733 70.6711 5.572C70.0364 5.92667 69.5371 6.412 69.1731 7.028C68.8184 7.644 68.6411 8.33467 68.6411 9.1C68.6411 9.86533 68.8184 10.556 69.1731 11.172C69.5371 11.788 70.0364 12.2733 70.6711 12.628C71.3057 12.9827 72.0104 13.16 72.7851 13.16C73.9611 13.16 74.9271 12.768 75.6831 11.984L76.3411 12.642C75.9117 13.1087 75.3844 13.468 74.7591 13.72C74.1431 13.9627 73.4711 14.084 72.7431 14.084ZM81.0214 14.07C80.3121 14.07 79.6728 13.9113 79.1034 13.594C78.5341 13.2673 78.0861 12.8193 77.7594 12.25C77.4328 11.6807 77.2694 11.0367 77.2694 10.318C77.2694 9.59933 77.4328 8.95533 77.7594 8.386C78.0861 7.81667 78.5341 7.37333 79.1034 7.056C79.6728 6.73867 80.3121 6.58 81.0214 6.58C81.7308 6.58 82.3701 6.73867 82.9394 7.056C83.5088 7.37333 83.9521 7.81667 84.2694 8.386C84.5961 8.95533 84.7594 9.59933 84.7594 10.318C84.7594 11.0367 84.5961 11.6807 84.2694 12.25C83.9521 12.8193 83.5088 13.2673 82.9394 13.594C82.3701 13.9113 81.7308 14.07 81.0214 14.07ZM81.0214 13.188C81.5441 13.188 82.0108 13.0713 82.4214 12.838C82.8414 12.5953 83.1681 12.2547 83.4014 11.816C83.6348 11.3773 83.7514 10.878 83.7514 10.318C83.7514 9.758 83.6348 9.25867 83.4014 8.82C83.1681 8.38133 82.8414 8.04533 82.4214 7.812C82.0108 7.56933 81.5441 7.448 81.0214 7.448C80.4988 7.448 80.0274 7.56933 79.6074 7.812C79.1968 8.04533 78.8701 8.38133 78.6274 8.82C78.3941 9.25867 78.2774 9.758 78.2774 10.318C78.2774 10.878 78.3941 11.3773 78.6274 11.816C78.8701 12.2547 79.1968 12.5953 79.6074 12.838C80.0274 13.0713 80.4988 13.188 81.0214 13.188ZM95.9728 6.58C96.8968 6.58 97.6201 6.846 98.1428 7.378C98.6748 7.91 98.9408 8.694 98.9408 9.73V14H97.9468V9.828C97.9468 9.06267 97.7601 8.47933 97.3868 8.078C97.0228 7.67667 96.5048 7.476 95.8328 7.476C95.0674 7.476 94.4654 7.714 94.0268 8.19C93.5881 8.65667 93.3688 9.30533 93.3688 10.136V14H92.3748V9.828C92.3748 9.06267 92.1881 8.47933 91.8148 8.078C91.4508 7.67667 90.9281 7.476 90.2468 7.476C89.4908 7.476 88.8888 7.714 88.4408 8.19C88.0021 8.65667 87.7828 9.30533 87.7828 10.136V14H86.7888V6.636H87.7408V7.98C88.0021 7.532 88.3661 7.18667 88.8328 6.944C89.2994 6.70133 89.8361 6.58 90.4428 6.58C91.0588 6.58 91.5908 6.71067 92.0388 6.972C92.4961 7.23333 92.8368 7.62067 93.0608 8.134C93.3314 7.64867 93.7188 7.27067 94.2228 7C94.7361 6.72 95.3194 6.58 95.9728 6.58ZM110.82 6.58C111.744 6.58 112.468 6.846 112.99 7.378C113.522 7.91 113.788 8.694 113.788 9.73V14H112.794V9.828C112.794 9.06267 112.608 8.47933 112.234 8.078C111.87 7.67667 111.352 7.476 110.68 7.476C109.915 7.476 109.313 7.714 108.874 8.19C108.436 8.65667 108.216 9.30533 108.216 10.136V14H107.222V9.828C107.222 9.06267 107.036 8.47933 106.662 8.078C106.298 7.67667 105.776 7.476 105.094 7.476C104.338 7.476 103.736 7.714 103.288 8.19C102.85 8.65667 102.63 9.30533 102.63 10.136V14H101.636V6.636H102.588V7.98C102.85 7.532 103.214 7.18667 103.68 6.944C104.147 6.70133 104.684 6.58 105.29 6.58C105.906 6.58 106.438 6.71067 106.886 6.972C107.344 7.23333 107.684 7.62067 107.908 8.134C108.179 7.64867 108.566 7.27067 109.07 7C109.584 6.72 110.167 6.58 110.82 6.58ZM122.923 10.626H116.763C116.819 11.3913 117.113 12.012 117.645 12.488C118.177 12.9547 118.849 13.188 119.661 13.188C120.119 13.188 120.539 13.1087 120.921 12.95C121.304 12.782 121.635 12.5393 121.915 12.222L122.475 12.866C122.149 13.258 121.738 13.5567 121.243 13.762C120.758 13.9673 120.221 14.07 119.633 14.07C118.877 14.07 118.205 13.9113 117.617 13.594C117.039 13.2673 116.586 12.8193 116.259 12.25C115.933 11.6807 115.769 11.0367 115.769 10.318C115.769 9.59933 115.923 8.95533 116.231 8.386C116.549 7.81667 116.978 7.37333 117.519 7.056C118.07 6.73867 118.686 6.58 119.367 6.58C120.049 6.58 120.66 6.73867 121.201 7.056C121.743 7.37333 122.167 7.81667 122.475 8.386C122.783 8.946 122.937 9.59 122.937 10.318L122.923 10.626ZM119.367 7.434C118.658 7.434 118.061 7.66267 117.575 8.12C117.099 8.568 116.829 9.156 116.763 9.884H121.985C121.92 9.156 121.645 8.568 121.159 8.12C120.683 7.66267 120.086 7.434 119.367 7.434ZM125.913 8.078C126.146 7.58333 126.491 7.21 126.949 6.958C127.415 6.706 127.989 6.58 128.671 6.58V7.546L128.433 7.532C127.658 7.532 127.051 7.77 126.613 8.246C126.174 8.722 125.955 9.38933 125.955 10.248V14H124.961V6.636H125.913V8.078ZM133.454 14.07C132.726 14.07 132.073 13.9113 131.494 13.594C130.925 13.2767 130.477 12.8333 130.15 12.264C129.823 11.6853 129.66 11.0367 129.66 10.318C129.66 9.59933 129.823 8.95533 130.15 8.386C130.477 7.81667 130.925 7.37333 131.494 7.056C132.073 6.73867 132.726 6.58 133.454 6.58C134.089 6.58 134.653 6.706 135.148 6.958C135.652 7.20067 136.049 7.56 136.338 8.036L135.596 8.54C135.353 8.176 135.045 7.90533 134.672 7.728C134.299 7.54133 133.893 7.448 133.454 7.448C132.922 7.448 132.441 7.56933 132.012 7.812C131.592 8.04533 131.261 8.38133 131.018 8.82C130.785 9.25867 130.668 9.758 130.668 10.318C130.668 10.8873 130.785 11.3913 131.018 11.83C131.261 12.2593 131.592 12.5953 132.012 12.838C132.441 13.0713 132.922 13.188 133.454 13.188C133.893 13.188 134.299 13.0993 134.672 12.922C135.045 12.7447 135.353 12.474 135.596 12.11L136.338 12.614C136.049 13.09 135.652 13.454 135.148 13.706C134.644 13.9487 134.079 14.07 133.454 14.07ZM144.58 10.626H138.42C138.476 11.3913 138.77 12.012 139.302 12.488C139.834 12.9547 140.506 13.188 141.318 13.188C141.775 13.188 142.195 13.1087 142.578 12.95C142.96 12.782 143.292 12.5393 143.572 12.222L144.132 12.866C143.805 13.258 143.394 13.5567 142.9 13.762C142.414 13.9673 141.878 14.07 141.29 14.07C140.534 14.07 139.862 13.9113 139.274 13.594C138.695 13.2673 138.242 12.8193 137.916 12.25C137.589 11.6807 137.426 11.0367 137.426 10.318C137.426 9.59933 137.58 8.95533 137.888 8.386C138.205 7.81667 138.634 7.37333 139.176 7.056C139.726 6.73867 140.342 6.58 141.024 6.58C141.705 6.58 142.316 6.73867 142.858 7.056C143.399 7.37333 143.824 7.81667 144.132 8.386C144.44 8.946 144.594 9.59 144.594 10.318L144.58 10.626ZM141.024 7.434C140.314 7.434 139.717 7.66267 139.232 8.12C138.756 8.568 138.485 9.156 138.42 9.884H143.642C143.576 9.156 143.301 8.568 142.816 8.12C142.34 7.66267 141.742 7.434 141.024 7.434Z" fill="#7E72F2"/>
<path d="M205.297 13.104V14H198.367V4.2H205.087V5.096H199.403V8.582H204.471V9.464H199.403V13.104H205.297ZM207.522 3.612H208.516V14H207.522V3.612ZM217.694 10.626H211.534C211.59 11.3913 211.884 12.012 212.416 12.488C212.948 12.9547 213.62 13.188 214.432 13.188C214.889 13.188 215.309 13.1087 215.692 12.95C216.075 12.782 216.406 12.5393 216.686 12.222L217.246 12.866C216.919 13.258 216.509 13.5567 216.014 13.762C215.529 13.9673 214.992 14.07 214.404 14.07C213.648 14.07 212.976 13.9113 212.388 13.594C211.809 13.2673 211.357 12.8193 211.03 12.25C210.703 11.6807 210.54 11.0367 210.54 10.318C210.54 9.59933 210.694 8.95533 211.002 8.386C211.319 7.81667 211.749 7.37333 212.29 7.056C212.841 6.73867 213.457 6.58 214.138 6.58C214.819 6.58 215.431 6.73867 215.972 7.056C216.513 7.37333 216.938 7.81667 217.246 8.386C217.554 8.946 217.708 9.59 217.708 10.318L217.694 10.626ZM214.138 7.434C213.429 7.434 212.831 7.66267 212.346 8.12C211.87 8.568 211.599 9.156 211.534 9.884H216.756C216.691 9.156 216.415 8.568 215.93 8.12C215.454 7.66267 214.857 7.434 214.138 7.434ZM222.783 14.07C222.055 14.07 221.402 13.9113 220.823 13.594C220.254 13.2767 219.806 12.8333 219.479 12.264C219.153 11.6853 218.989 11.0367 218.989 10.318C218.989 9.59933 219.153 8.95533 219.479 8.386C219.806 7.81667 220.254 7.37333 220.823 7.056C221.402 6.73867 222.055 6.58 222.783 6.58C223.418 6.58 223.983 6.706 224.477 6.958C224.981 7.20067 225.378 7.56 225.667 8.036L224.925 8.54C224.683 8.176 224.375 7.90533 224.001 7.728C223.628 7.54133 223.222 7.448 222.783 7.448C222.251 7.448 221.771 7.56933 221.341 7.812C220.921 8.04533 220.59 8.38133 220.347 8.82C220.114 9.25867 219.997 9.758 219.997 10.318C219.997 10.8873 220.114 11.3913 220.347 11.83C220.59 12.2593 220.921 12.5953 221.341 12.838C221.771 13.0713 222.251 13.188 222.783 13.188C223.222 13.188 223.628 13.0993 224.001 12.922C224.375 12.7447 224.683 12.474 224.925 12.11L225.667 12.614C225.378 13.09 224.981 13.454 224.477 13.706C223.973 13.9487 223.409 14.07 222.783 14.07ZM231.58 13.552C231.393 13.72 231.16 13.8507 230.88 13.944C230.609 14.028 230.325 14.07 230.026 14.07C229.335 14.07 228.803 13.8833 228.43 13.51C228.057 13.1367 227.87 12.6093 227.87 11.928V7.476H226.554V6.636H227.87V5.026H228.864V6.636H231.104V7.476H228.864V11.872C228.864 12.3107 228.971 12.6467 229.186 12.88C229.41 13.104 229.727 13.216 230.138 13.216C230.343 13.216 230.539 13.1833 230.726 13.118C230.922 13.0527 231.09 12.9593 231.23 12.838L231.58 13.552ZM234.342 8.078C234.575 7.58333 234.92 7.21 235.378 6.958C235.844 6.706 236.418 6.58 237.1 6.58V7.546L236.862 7.532C236.087 7.532 235.48 7.77 235.042 8.246C234.603 8.722 234.384 9.38933 234.384 10.248V14H233.39V6.636H234.342V8.078ZM241.841 14.07C241.132 14.07 240.492 13.9113 239.923 13.594C239.354 13.2673 238.906 12.8193 238.579 12.25C238.252 11.6807 238.089 11.0367 238.089 10.318C238.089 9.59933 238.252 8.95533 238.579 8.386C238.906 7.81667 239.354 7.37333 239.923 7.056C240.492 6.73867 241.132 6.58 241.841 6.58C242.55 6.58 243.19 6.73867 243.759 7.056C244.328 7.37333 244.772 7.81667 245.089 8.386C245.416 8.95533 245.579 9.59933 245.579 10.318C245.579 11.0367 245.416 11.6807 245.089 12.25C244.772 12.8193 244.328 13.2673 243.759 13.594C243.19 13.9113 242.55 14.07 241.841 14.07ZM241.841 13.188C242.364 13.188 242.83 13.0713 243.241 12.838C243.661 12.5953 243.988 12.2547 244.221 11.816C244.454 11.3773 244.571 10.878 244.571 10.318C244.571 9.758 244.454 9.25867 244.221 8.82C243.988 8.38133 243.661 8.04533 243.241 7.812C242.83 7.56933 242.364 7.448 241.841 7.448C241.318 7.448 240.847 7.56933 240.427 7.812C240.016 8.04533 239.69 8.38133 239.447 8.82C239.214 9.25867 239.097 9.758 239.097 10.318C239.097 10.878 239.214 11.3773 239.447 11.816C239.69 12.2547 240.016 12.5953 240.427 12.838C240.847 13.0713 241.318 13.188 241.841 13.188ZM251.36 6.58C252.284 6.58 253.017 6.85067 253.558 7.392C254.109 7.924 254.384 8.70333 254.384 9.73V14H253.39V9.828C253.39 9.06267 253.199 8.47933 252.816 8.078C252.434 7.67667 251.888 7.476 251.178 7.476C250.385 7.476 249.755 7.714 249.288 8.19C248.831 8.65667 248.602 9.30533 248.602 10.136V14H247.608V6.636H248.56V7.994C248.831 7.546 249.204 7.20067 249.68 6.958C250.166 6.706 250.726 6.58 251.36 6.58ZM257.083 6.636H258.077V14H257.083V6.636ZM257.587 5.026C257.382 5.026 257.209 4.956 257.069 4.816C256.929 4.676 256.859 4.508 256.859 4.312C256.859 4.12533 256.929 3.962 257.069 3.822C257.209 3.682 257.382 3.612 257.587 3.612C257.792 3.612 257.965 3.682 258.105 3.822C258.245 3.95267 258.315 4.11133 258.315 4.298C258.315 4.50333 258.245 4.676 258.105 4.816C257.965 4.956 257.792 5.026 257.587 5.026ZM263.895 14.07C263.167 14.07 262.513 13.9113 261.935 13.594C261.365 13.2767 260.917 12.8333 260.591 12.264C260.264 11.6853 260.101 11.0367 260.101 10.318C260.101 9.59933 260.264 8.95533 260.591 8.386C260.917 7.81667 261.365 7.37333 261.935 7.056C262.513 6.73867 263.167 6.58 263.895 6.58C264.529 6.58 265.094 6.706 265.589 6.958C266.093 7.20067 266.489 7.56 266.779 8.036L266.037 8.54C265.794 8.176 265.486 7.90533 265.113 7.728C264.739 7.54133 264.333 7.448 263.895 7.448C263.363 7.448 262.882 7.56933 262.453 7.812C262.033 8.04533 261.701 8.38133 261.459 8.82C261.225 9.25867 261.109 9.758 261.109 10.318C261.109 10.8873 261.225 11.3913 261.459 11.83C261.701 12.2593 262.033 12.5953 262.453 12.838C262.882 13.0713 263.363 13.188 263.895 13.188C264.333 13.188 264.739 13.0993 265.113 12.922C265.486 12.7447 265.794 12.474 266.037 12.11L266.779 12.614C266.489 13.09 266.093 13.454 265.589 13.706C265.085 13.9487 264.52 14.07 263.895 14.07ZM270.705 14.07C270.108 14.07 269.534 13.986 268.983 13.818C268.442 13.6407 268.017 13.4213 267.709 13.16L268.157 12.376C268.465 12.6187 268.853 12.8193 269.319 12.978C269.786 13.1273 270.271 13.202 270.775 13.202C271.447 13.202 271.942 13.0993 272.259 12.894C272.586 12.6793 272.749 12.3807 272.749 11.998C272.749 11.7273 272.661 11.5173 272.483 11.368C272.306 11.2093 272.082 11.0927 271.811 11.018C271.541 10.934 271.181 10.8547 270.733 10.78C270.136 10.668 269.655 10.556 269.291 10.444C268.927 10.3227 268.615 10.122 268.353 9.842C268.101 9.562 267.975 9.17467 267.975 8.68C267.975 8.064 268.232 7.56 268.745 7.168C269.259 6.776 269.973 6.58 270.887 6.58C271.363 6.58 271.839 6.64533 272.315 6.776C272.791 6.89733 273.183 7.06067 273.491 7.266L273.057 8.064C272.451 7.644 271.727 7.434 270.887 7.434C270.253 7.434 269.772 7.546 269.445 7.77C269.128 7.994 268.969 8.288 268.969 8.652C268.969 8.932 269.058 9.156 269.235 9.324C269.422 9.492 269.651 9.618 269.921 9.702C270.192 9.77667 270.565 9.856 271.041 9.94C271.629 10.052 272.101 10.164 272.455 10.276C272.81 10.388 273.113 10.5793 273.365 10.85C273.617 11.1207 273.743 11.494 273.743 11.97C273.743 12.614 273.473 13.1273 272.931 13.51C272.399 13.8833 271.657 14.07 270.705 14.07Z" fill="#2C2C2C"/>
</svg>
